<svg width="14" height="14" viewBox="0 0 14 14" fill="none" xmlns="http://www.w3.org/2000/svg">
<path id="Vector" d="M13.8865 6.99987C13.8865 7.30437 13.7697 7.59871 13.5514 7.81185C13.3382 8.03007 13.0437 8.15187 12.7391 8.15187H8.14975V12.7395C8.14975 13.044 8.02791 13.3384 7.80961 13.5515C7.59639 13.7647 7.30702 13.8865 7.00241 13.8865C6.69781 13.8865 6.40336 13.7647 6.19013 13.5515C5.97183 13.3384 5.84999 13.044 5.84999 12.7395V8.15187H1.26062C0.956019 8.15187 0.661569 8.03007 0.448346 7.81185C0.235123 7.59871 0.113281 7.30437 0.113281 6.99987C0.113281 6.69538 0.235123 6.40612 0.448346 6.1879C0.661569 5.97475 0.956019 5.85295 1.26062 5.85295H5.84999V1.26528C5.84999 0.960784 5.97183 0.666442 6.19013 0.453297C6.40336 0.235078 6.69781 0.113281 7.00241 0.113281C7.30702 0.113281 7.59639 0.235078 7.80961 0.453297C8.02791 0.666442 8.14975 0.960784 8.14975 1.26528V5.85295H12.7391C13.0437 5.85295 13.3382 5.97475 13.5514 6.1879C13.7697 6.40612 13.8865 6.69538 13.8865 6.99987Z" fill="white"/>
</svg>
