<svg width="21" height="20" viewBox="0 0 21 20" fill="none" xmlns="http://www.w3.org/2000/svg">
<g id="vuesax/outline/bag-2">
<g id="bag-2">
<path id="Vector" d="M14.25 7.19159C13.9083 7.19159 13.625 6.90826 13.625 6.56659V5.41659C13.625 4.54159 13.25 3.69159 12.6 3.09992C11.9417 2.49992 11.0917 2.22492 10.1917 2.30826C8.69167 2.44992 7.375 3.98326 7.375 5.58326V6.39159C7.375 6.73326 7.09167 7.01659 6.75 7.01659C6.40833 7.01659 6.125 6.73326 6.125 6.39159V5.57492C6.125 3.33326 7.93333 1.26659 10.075 1.05826C11.325 0.94159 12.525 1.33326 13.4417 2.17492C14.35 2.99992 14.875 4.18326 14.875 5.41659V6.56659C14.875 6.90826 14.5917 7.19159 14.25 7.19159Z" fill="#393939"/>
<path id="Vector_2" d="M12.9998 18.9582H7.99985C4.14985 18.9582 3.43318 17.1665 3.24985 15.4248L2.62485 10.4332C2.53318 9.53317 2.49985 8.2415 3.37485 7.27484C4.12485 6.4415 5.36652 6.0415 7.16652 6.0415H13.8332C15.6415 6.0415 16.8832 6.44984 17.6248 7.27484C18.4915 8.2415 18.4665 9.53317 18.3748 10.4165L17.7498 15.4248C17.5665 17.1665 16.8498 18.9582 12.9998 18.9582ZM7.16652 7.2915C5.75818 7.2915 4.79152 7.5665 4.29985 8.1165C3.89152 8.5665 3.75818 9.25817 3.86652 10.2915L4.49152 15.2832C4.63318 16.6165 4.99985 17.7165 7.99985 17.7165H12.9998C15.9998 17.7165 16.3665 16.6248 16.5082 15.2998L17.1332 10.2915C17.2415 9.27484 17.1082 8.58317 16.6998 8.12484C16.2082 7.5665 15.2415 7.2915 13.8332 7.2915H7.16652Z" fill="#393939"/>
<path id="Vector_3" d="M13.35 10.9582C12.8833 10.9582 12.5083 10.5832 12.5083 10.1248C12.5083 9.6665 12.8833 9.2915 13.3416 9.2915C13.8 9.2915 14.175 9.6665 14.175 10.1248C14.175 10.5832 13.8083 10.9582 13.35 10.9582Z" fill="#393939"/>
<path id="Vector_4" d="M7.51647 10.9582C7.0498 10.9582 6.6748 10.5832 6.6748 10.1248C6.6748 9.6665 7.0498 9.2915 7.50814 9.2915C7.96647 9.2915 8.34147 9.6665 8.34147 10.1248C8.34147 10.5832 7.97481 10.9582 7.51647 10.9582Z" fill="#393939"/>
</g>
</g>
</svg>
