<svg width="21" height="20" viewBox="0 0 21 20" fill="none" xmlns="http://www.w3.org/2000/svg">
<g id="vuesax/outline/category-2">
<g id="category-2">
<path id="Vector" d="M16.3332 8.95817H14.6665C12.6498 8.95817 11.5415 7.84984 11.5415 5.83317V4.1665C11.5415 2.14984 12.6498 1.0415 14.6665 1.0415H16.3332C18.3498 1.0415 19.4582 2.14984 19.4582 4.1665V5.83317C19.4582 7.84984 18.3498 8.95817 16.3332 8.95817ZM14.6665 2.2915C13.3498 2.2915 12.7915 2.84984 12.7915 4.1665V5.83317C12.7915 7.14984 13.3498 7.70817 14.6665 7.70817H16.3332C17.6498 7.70817 18.2082 7.14984 18.2082 5.83317V4.1665C18.2082 2.84984 17.6498 2.2915 16.3332 2.2915H14.6665Z" fill="#393939"/>
<path id="Vector_2" d="M6.33317 18.9582H4.6665C2.64984 18.9582 1.5415 17.8498 1.5415 15.8332V14.1665C1.5415 12.1498 2.64984 11.0415 4.6665 11.0415H6.33317C8.34984 11.0415 9.45817 12.1498 9.45817 14.1665V15.8332C9.45817 17.8498 8.34984 18.9582 6.33317 18.9582ZM4.6665 12.2915C3.34984 12.2915 2.7915 12.8498 2.7915 14.1665V15.8332C2.7915 17.1498 3.34984 17.7082 4.6665 17.7082H6.33317C7.64984 17.7082 8.20817 17.1498 8.20817 15.8332V14.1665C8.20817 12.8498 7.64984 12.2915 6.33317 12.2915H4.6665Z" fill="#393939"/>
<path id="Vector_3" d="M5.49984 8.95817C3.3165 8.95817 1.5415 7.18317 1.5415 4.99984C1.5415 2.8165 3.3165 1.0415 5.49984 1.0415C7.68317 1.0415 9.45817 2.8165 9.45817 4.99984C9.45817 7.18317 7.68317 8.95817 5.49984 8.95817ZM5.49984 2.2915C4.00817 2.2915 2.7915 3.50817 2.7915 4.99984C2.7915 6.4915 4.00817 7.70817 5.49984 7.70817C6.9915 7.70817 8.20817 6.4915 8.20817 4.99984C8.20817 3.50817 6.9915 2.2915 5.49984 2.2915Z" fill="#393939"/>
<path id="Vector_4" d="M15.4998 18.9582C13.3165 18.9582 11.5415 17.1832 11.5415 14.9998C11.5415 12.8165 13.3165 11.0415 15.4998 11.0415C17.6832 11.0415 19.4582 12.8165 19.4582 14.9998C19.4582 17.1832 17.6832 18.9582 15.4998 18.9582ZM15.4998 12.2915C14.0082 12.2915 12.7915 13.5082 12.7915 14.9998C12.7915 16.4915 14.0082 17.7082 15.4998 17.7082C16.9915 17.7082 18.2082 16.4915 18.2082 14.9998C18.2082 13.5082 16.9915 12.2915 15.4998 12.2915Z" fill="#393939"/>
</g>
</g>
</svg>
