<svg width="16" height="16" viewBox="0 0 16 16" fill="none" xmlns="http://www.w3.org/2000/svg">
<g id="2 - Regular / map-marker">
<path id="map-marker-Regular" d="M8.00016 4.16667C6.6215 4.16667 5.50016 5.288 5.50016 6.66667C5.50016 8.04533 6.6215 9.16667 8.00016 9.16667C9.37883 9.16667 10.5002 8.04533 10.5002 6.66667C10.5002 5.288 9.37883 4.16667 8.00016 4.16667ZM8.00016 8.16667C7.17283 8.16667 6.50016 7.494 6.50016 6.66667C6.50016 5.83933 7.17283 5.16667 8.00016 5.16667C8.8275 5.16667 9.50016 5.83933 9.50016 6.66667C9.50016 7.494 8.8275 8.16667 8.00016 8.16667ZM7.9975 1.5C5.0535 1.5 2.8335 3.72133 2.8335 6.66667C2.8335 10.8053 5.99083 13.384 7.34749 14.3C7.54483 14.4333 7.77083 14.5 7.9975 14.5C8.22283 14.5 8.44883 14.4334 8.64616 14.3007C10.0055 13.3827 13.1668 10.8007 13.1668 6.66602C13.1668 3.72068 10.9448 1.5 7.9975 1.5ZM8.08683 13.472C8.0315 13.5093 7.96282 13.5093 7.90749 13.472C6.95149 12.8267 3.8335 10.4287 3.8335 6.66667C3.8335 4.29133 5.6235 2.5 7.9975 2.5C10.3742 2.5 12.1668 4.29133 12.1668 6.66667C12.1668 10.322 9.3135 12.644 8.08683 13.472Z" fill="white"/>
</g>
</svg>
