<svg width="24" height="24" viewBox="0 0 24 24" fill="none" xmlns="http://www.w3.org/2000/svg">
<g id="2 - Regular / search" opacity="0.4">
<path id="search-Regular" d="M21.53 20.469L16.836 15.775C18.03 14.344 18.75 12.505 18.75 10.5C18.75 5.951 15.049 2.25 10.5 2.25C5.951 2.25 2.25 5.951 2.25 10.5C2.25 15.049 5.951 18.75 10.5 18.75C12.505 18.75 14.344 18.0301 15.775 16.8361L20.469 21.53C20.615 21.676 20.807 21.75 20.999 21.75C21.191 21.75 21.383 21.677 21.529 21.53C21.823 21.237 21.823 20.762 21.53 20.469ZM3.75 10.5C3.75 6.778 6.778 3.75 10.5 3.75C14.222 3.75 17.25 6.778 17.25 10.5C17.25 14.222 14.222 17.25 10.5 17.25C6.778 17.25 3.75 14.222 3.75 10.5Z" fill="#656565"/>
</g>
</svg>
